<svg xmlns="http://www.w3.org/2000/svg" xmlns:xlink="http://www.w3.org/1999/xlink" width="500" zoomAndPan="magnify" viewBox="0 0 375 374.999991" height="500" preserveAspectRatio="xMidYMid meet" version="1.0"><defs><clipPath id="87faab959f"><path d="M 14.011719 156 L 93 156 L 93 258 L 14.011719 258 Z M 14.011719 156 " clip-rule="nonzero"/></clipPath><clipPath id="17c11abb8a"><path d="M 42 86 L 335 86 L 335 312.332031 L 42 312.332031 Z M 42 86 " clip-rule="nonzero"/></clipPath><clipPath id="94745ab0ca"><path d="M 25 43.082031 L 352 43.082031 L 352 231 L 25 231 Z M 25 43.082031 " clip-rule="nonzero"/></clipPath><clipPath id="d6fd6b4de1"><path d="M 264.492188 209.59375 L 270 209.59375 L 270 214 L 264.492188 214 Z M 264.492188 209.59375 " clip-rule="nonzero"/></clipPath><clipPath id="1254866ece"><path d="M 265 212 L 270.492188 212 L 270.492188 216.34375 L 265 216.34375 Z M 265 212 " clip-rule="nonzero"/></clipPath></defs><g clip-path="url(#87faab959f)"><path fill="#ef4444" d="M 53.480469 156.851562 C 75.347656 156.851562 92.949219 174.457031 92.949219 196.320312 L 92.949219 218.058594 C 92.949219 239.925781 75.347656 257.527344 53.480469 257.527344 C 31.613281 257.527344 14.011719 239.925781 14.011719 218.058594 L 14.011719 196.320312 C 14.011719 174.457031 31.613281 156.851562 53.480469 156.851562 Z M 53.480469 156.851562 " fill-opacity="1" fill-rule="nonzero"/></g><path fill="#ef4444" d="M 321.53125 156.851562 C 343.398438 156.851562 361 174.457031 361 196.320312 L 361 218.058594 C 361 239.925781 343.398438 257.527344 321.53125 257.527344 C 299.664062 257.527344 282.0625 239.925781 282.0625 218.058594 L 282.0625 196.320312 C 282.0625 174.457031 299.664062 156.851562 321.53125 156.851562 Z M 321.53125 156.851562 " fill-opacity="1" fill-rule="nonzero"/><path fill="#ef4444" d="M 138.199219 105.308594 C 138.199219 83.441406 155.804688 65.839844 177.667969 65.839844 L 199.40625 65.839844 C 221.273438 65.839844 238.875 83.441406 238.875 105.308594 C 238.875 127.175781 221.273438 144.777344 199.40625 144.777344 L 177.667969 144.777344 C 155.804688 144.777344 138.199219 127.175781 138.199219 105.308594 Z M 138.199219 105.308594 " fill-opacity="1" fill-rule="nonzero"/><g clip-path="url(#17c11abb8a)"><path fill="#fca5a5" d="M 334.152344 199.210938 C 334.152344 261.675781 304.554688 312.3125 188.539062 312.3125 C 82.230469 312.3125 42.925781 261.675781 42.925781 199.210938 C 42.925781 136.746094 108.117188 86.109375 188.539062 86.109375 C 268.957031 86.109375 334.152344 136.746094 334.152344 199.210938 Z M 334.152344 199.210938 " fill-opacity="1" fill-rule="nonzero"/></g><path fill="#fef2f2" d="M 305.238281 199.210938 C 305.238281 238.058594 281.515625 269.550781 188.539062 269.550781 C 103.339844 269.550781 71.839844 238.058594 71.839844 199.210938 C 71.839844 160.363281 124.085938 128.871094 188.539062 128.871094 C 252.988281 128.871094 305.238281 160.363281 305.238281 199.210938 Z M 305.238281 199.210938 " fill-opacity="1" fill-rule="nonzero"/><path fill="#ffffff" d="M 188.539062 125.367188 C 155.742188 125.367188 126.003906 133.335938 104.210938 146.46875 C 82.417969 159.605469 68.335938 178.214844 68.335938 199.210938 C 68.335938 219.582031 76.871094 238.519531 96.253906 251.835938 C 115.640625 265.15625 145.507812 273.058594 188.539062 273.058594 C 235.421875 273.058594 265.320312 265.195312 283.8125 251.785156 C 302.304688 238.378906 308.742188 219.347656 308.742188 199.210938 C 308.742188 178.214844 294.660156 159.605469 272.867188 146.46875 C 251.074219 133.335938 221.335938 125.367188 188.539062 125.367188 Z M 188.539062 132.375 C 220.191406 132.375 248.804688 140.152344 269.246094 152.476562 C 289.691406 164.796875 301.730469 181.359375 301.730469 199.210938 C 301.730469 217.921875 296.308594 234.0625 279.695312 246.109375 C 263.082031 258.160156 234.632812 266.046875 188.539062 266.046875 C 146.371094 266.046875 117.890625 258.199219 100.226562 246.058594 C 82.558594 233.921875 75.34375 217.6875 75.34375 199.210938 C 75.34375 181.359375 87.386719 164.796875 107.828125 152.476562 C 128.273438 140.152344 156.882812 132.375 188.539062 132.375 Z M 188.539062 132.375 " fill-opacity="1" fill-rule="nonzero"/><path fill="#0c0a09" d="M 157.96875 196.082031 C 157.96875 196.777344 157.945312 197.472656 157.902344 198.164062 C 157.863281 198.855469 157.796875 199.542969 157.710938 200.226562 C 157.625 200.90625 157.519531 201.582031 157.394531 202.246094 C 157.265625 202.910156 157.121094 203.566406 156.953125 204.207031 C 156.785156 204.851562 156.597656 205.480469 156.394531 206.09375 C 156.1875 206.707031 155.960938 207.300781 155.71875 207.878906 C 155.476562 208.457031 155.214844 209.015625 154.9375 209.554688 C 154.660156 210.089844 154.367188 210.605469 154.058594 211.097656 C 153.75 211.589844 153.425781 212.054688 153.089844 212.496094 C 152.753906 212.9375 152.402344 213.351562 152.039062 213.738281 C 151.675781 214.125 151.300781 214.480469 150.914062 214.808594 C 150.53125 215.136719 150.136719 215.433594 149.730469 215.699219 C 149.328125 215.964844 148.917969 216.199219 148.496094 216.402344 C 148.078125 216.605469 147.65625 216.773438 147.226562 216.910156 C 146.796875 217.042969 146.367188 217.144531 145.933594 217.214844 C 145.496094 217.28125 145.0625 217.316406 144.625 217.316406 C 144.1875 217.316406 143.75 217.28125 143.316406 217.214844 C 142.882812 217.144531 142.449219 217.042969 142.019531 216.910156 C 141.59375 216.773438 141.167969 216.605469 140.75 216.402344 C 140.332031 216.199219 139.921875 215.964844 139.519531 215.699219 C 139.113281 215.433594 138.71875 215.136719 138.332031 214.808594 C 137.949219 214.480469 137.574219 214.125 137.210938 213.738281 C 136.847656 213.351562 136.496094 212.9375 136.160156 212.496094 C 135.820312 212.054688 135.496094 211.589844 135.1875 211.097656 C 134.878906 210.605469 134.585938 210.089844 134.308594 209.554688 C 134.03125 209.015625 133.773438 208.457031 133.527344 207.878906 C 133.285156 207.300781 133.0625 206.707031 132.855469 206.09375 C 132.648438 205.480469 132.460938 204.851562 132.296875 204.207031 C 132.128906 203.566406 131.980469 202.910156 131.855469 202.246094 C 131.726562 201.582031 131.621094 200.90625 131.535156 200.226562 C 131.449219 199.542969 131.386719 198.855469 131.34375 198.164062 C 131.300781 197.472656 131.28125 196.777344 131.28125 196.082031 C 131.28125 195.386719 131.300781 194.695312 131.34375 194 C 131.386719 193.308594 131.449219 192.621094 131.535156 191.941406 C 131.621094 191.257812 131.726562 190.585938 131.855469 189.917969 C 131.980469 189.253906 132.128906 188.597656 132.296875 187.957031 C 132.460938 187.3125 132.648438 186.6875 132.855469 186.074219 C 133.0625 185.460938 133.285156 184.863281 133.527344 184.285156 C 133.773438 183.707031 134.03125 183.148438 134.308594 182.613281 C 134.585938 182.074219 134.878906 181.558594 135.1875 181.066406 C 135.496094 180.578125 135.820312 180.109375 136.160156 179.667969 C 136.496094 179.226562 136.847656 178.8125 137.210938 178.425781 C 137.574219 178.042969 137.949219 177.683594 138.332031 177.355469 C 138.71875 177.027344 139.113281 176.730469 139.515625 176.464844 C 139.921875 176.199219 140.332031 175.964844 140.75 175.761719 C 141.167969 175.5625 141.59375 175.394531 142.019531 175.257812 C 142.449219 175.121094 142.882812 175.019531 143.316406 174.953125 C 143.75 174.882812 144.1875 174.847656 144.625 174.847656 C 145.0625 174.847656 145.496094 174.882812 145.933594 174.953125 C 146.367188 175.019531 146.796875 175.121094 147.226562 175.257812 C 147.65625 175.394531 148.078125 175.5625 148.496094 175.761719 C 148.917969 175.964844 149.328125 176.199219 149.730469 176.464844 C 150.136719 176.730469 150.53125 177.027344 150.914062 177.355469 C 151.300781 177.683594 151.675781 178.042969 152.039062 178.425781 C 152.402344 178.8125 152.75 179.226562 153.089844 179.667969 C 153.425781 180.109375 153.75 180.578125 154.058594 181.066406 C 154.367188 181.558594 154.660156 182.074219 154.9375 182.613281 C 155.214844 183.148438 155.476562 183.707031 155.71875 184.285156 C 155.960938 184.863281 156.1875 185.460938 156.394531 186.074219 C 156.597656 186.6875 156.785156 187.3125 156.953125 187.957031 C 157.121094 188.597656 157.265625 189.253906 157.394531 189.917969 C 157.519531 190.585938 157.625 191.257812 157.710938 191.941406 C 157.796875 192.621094 157.863281 193.308594 157.902344 194 C 157.945312 194.695312 157.96875 195.386719 157.96875 196.082031 Z M 157.96875 196.082031 " fill-opacity="1" fill-rule="nonzero"/><path fill="#0c0a09" d="M 243.730469 196.082031 C 243.730469 196.777344 243.710938 197.472656 243.667969 198.164062 C 243.625 198.855469 243.558594 199.542969 243.476562 200.226562 C 243.390625 200.90625 243.28125 201.582031 243.15625 202.246094 C 243.03125 202.910156 242.882812 203.566406 242.714844 204.207031 C 242.546875 204.851562 242.359375 205.480469 242.15625 206.09375 C 241.949219 206.707031 241.726562 207.300781 241.480469 207.878906 C 241.238281 208.457031 240.980469 209.015625 240.703125 209.554688 C 240.425781 210.089844 240.132812 210.605469 239.824219 211.097656 C 239.511719 211.589844 239.191406 212.054688 238.851562 212.496094 C 238.515625 212.9375 238.164062 213.351562 237.800781 213.738281 C 237.4375 214.125 237.0625 214.480469 236.675781 214.808594 C 236.292969 215.136719 235.898438 215.433594 235.492188 215.699219 C 235.089844 215.964844 234.679688 216.199219 234.261719 216.402344 C 233.84375 216.605469 233.417969 216.773438 232.988281 216.910156 C 232.5625 217.042969 232.128906 217.144531 231.695312 217.214844 C 231.257812 217.28125 230.824219 217.316406 230.386719 217.316406 C 229.949219 217.316406 229.511719 217.28125 229.078125 217.214844 C 228.644531 217.144531 228.210938 217.042969 227.785156 216.910156 C 227.355469 216.773438 226.929688 216.605469 226.511719 216.402344 C 226.09375 216.199219 225.683594 215.964844 225.28125 215.699219 C 224.875 215.433594 224.480469 215.136719 224.097656 214.808594 C 223.710938 214.480469 223.335938 214.125 222.972656 213.738281 C 222.609375 213.351562 222.257812 212.9375 221.921875 212.496094 C 221.582031 212.054688 221.257812 211.589844 220.949219 211.097656 C 220.640625 210.605469 220.347656 210.089844 220.070312 209.554688 C 219.792969 209.015625 219.535156 208.457031 219.292969 207.878906 C 219.046875 207.300781 218.824219 206.707031 218.617188 206.09375 C 218.410156 205.480469 218.226562 204.851562 218.058594 204.207031 C 217.890625 203.566406 217.742188 202.910156 217.617188 202.246094 C 217.488281 201.582031 217.382812 200.90625 217.296875 200.226562 C 217.214844 199.542969 217.148438 198.855469 217.105469 198.164062 C 217.0625 197.472656 217.042969 196.777344 217.042969 196.082031 C 217.042969 195.386719 217.0625 194.695312 217.105469 194 C 217.148438 193.308594 217.214844 192.621094 217.296875 191.941406 C 217.382812 191.257812 217.488281 190.585938 217.617188 189.917969 C 217.742188 189.253906 217.890625 188.597656 218.058594 187.957031 C 218.226562 187.3125 218.410156 186.6875 218.617188 186.074219 C 218.824219 185.460938 219.046875 184.863281 219.292969 184.285156 C 219.535156 183.707031 219.792969 183.148438 220.070312 182.613281 C 220.347656 182.074219 220.640625 181.558594 220.949219 181.066406 C 221.257812 180.578125 221.582031 180.109375 221.921875 179.667969 C 222.257812 179.226562 222.609375 178.8125 222.972656 178.425781 C 223.335938 178.042969 223.710938 177.683594 224.097656 177.355469 C 224.480469 177.027344 224.875 176.730469 225.28125 176.464844 C 225.683594 176.199219 226.09375 175.964844 226.511719 175.761719 C 226.929688 175.5625 227.355469 175.394531 227.785156 175.257812 C 228.210938 175.121094 228.644531 175.019531 229.078125 174.953125 C 229.511719 174.882812 229.949219 174.847656 230.386719 174.847656 C 230.824219 174.847656 231.257812 174.882812 231.695312 174.953125 C 232.128906 175.019531 232.5625 175.121094 232.988281 175.257812 C 233.417969 175.394531 233.84375 175.5625 234.261719 175.761719 C 234.679688 175.964844 235.089844 176.199219 235.492188 176.464844 C 235.898438 176.730469 236.292969 177.027344 236.675781 177.355469 C 237.0625 177.683594 237.4375 178.042969 237.800781 178.425781 C 238.164062 178.8125 238.515625 179.226562 238.851562 179.667969 C 239.191406 180.109375 239.511719 180.578125 239.824219 181.066406 C 240.132812 181.558594 240.425781 182.074219 240.703125 182.613281 C 240.980469 183.148438 241.238281 183.707031 241.480469 184.285156 C 241.726562 184.863281 241.949219 185.460938 242.15625 186.074219 C 242.359375 186.6875 242.546875 187.3125 242.714844 187.957031 C 242.882812 188.597656 243.03125 189.253906 243.15625 189.917969 C 243.28125 190.585938 243.390625 191.257812 243.476562 191.941406 C 243.558594 192.621094 243.625 193.308594 243.667969 194 C 243.710938 194.695312 243.730469 195.386719 243.730469 196.082031 Z M 243.730469 196.082031 " fill-opacity="1" fill-rule="nonzero"/><g clip-path="url(#94745ab0ca)"><path fill="#ef4444" d="M 187.667969 43.328125 C 157.5 43.492188 127.375 52.015625 100.925781 68.882812 C 48.027344 102.617188 19.191406 163.761719 26.804688 226.039062 C 26.84375 226.367188 26.917969 226.691406 27.019531 227.003906 C 27.125 227.320312 27.257812 227.621094 27.421875 227.914062 C 27.585938 228.203125 27.773438 228.472656 27.992188 228.722656 C 28.207031 228.976562 28.449219 229.203125 28.710938 229.410156 C 28.972656 229.613281 29.25 229.789062 29.546875 229.941406 C 29.84375 230.089844 30.152344 230.207031 30.472656 230.296875 C 30.792969 230.386719 31.117188 230.445312 31.449219 230.46875 C 31.78125 230.492188 32.109375 230.484375 32.441406 230.445312 C 32.769531 230.40625 33.09375 230.332031 33.40625 230.230469 C 33.722656 230.125 34.027344 229.992188 34.316406 229.828125 C 34.605469 229.664062 34.875 229.476562 35.125 229.257812 C 35.378906 229.042969 35.605469 228.800781 35.8125 228.539062 C 36.015625 228.277344 36.191406 228 36.34375 227.703125 C 36.492188 227.40625 36.613281 227.097656 36.699219 226.777344 C 36.789062 226.457031 36.847656 226.132812 36.871094 225.800781 C 36.894531 225.46875 36.886719 225.140625 36.847656 224.808594 C 29.703125 166.378906 56.734375 109.066406 106.367188 77.414062 C 156 45.761719 219.363281 45.421875 269.332031 76.542969 C 319.296875 107.664062 346.9375 164.6875 340.417969 223.1875 C 340.382812 223.519531 340.375 223.851562 340.40625 224.179688 C 340.433594 224.511719 340.492188 224.835938 340.585938 225.15625 C 340.679688 225.476562 340.800781 225.78125 340.953125 226.078125 C 341.105469 226.371094 341.285156 226.648438 341.496094 226.910156 C 341.703125 227.167969 341.933594 227.40625 342.1875 227.617188 C 342.441406 227.832031 342.714844 228.019531 343.003906 228.179688 C 343.296875 228.339844 343.597656 228.472656 343.914062 228.570312 C 344.230469 228.671875 344.554688 228.742188 344.886719 228.777344 C 345.214844 228.8125 345.546875 228.816406 345.878906 228.789062 C 346.207031 228.761719 346.535156 228.703125 346.851562 228.609375 C 347.171875 228.515625 347.476562 228.394531 347.773438 228.242188 C 348.066406 228.089844 348.34375 227.910156 348.605469 227.699219 C 348.863281 227.492188 349.101562 227.261719 349.316406 227.007812 C 349.527344 226.753906 349.714844 226.480469 349.878906 226.191406 C 350.039062 225.898438 350.167969 225.597656 350.269531 225.28125 C 350.367188 224.964844 350.4375 224.640625 350.472656 224.308594 C 357.421875 161.957031 327.933594 101.125 274.679688 67.957031 C 248.050781 51.371094 217.839844 43.167969 187.667969 43.328125 Z M 187.667969 43.328125 " fill-opacity="1" fill-rule="nonzero"/></g><path fill="#ef4444" d="M 32.699219 185.878906 C 32.371094 185.820312 32.042969 185.796875 31.710938 185.804688 C 31.378906 185.808594 31.050781 185.851562 30.726562 185.921875 C 30.402344 185.996094 30.089844 186.097656 29.785156 186.230469 C 29.480469 186.367188 29.191406 186.527344 28.917969 186.71875 C 28.648438 186.910156 28.398438 187.125 28.167969 187.367188 C 27.9375 187.605469 27.734375 187.867188 27.558594 188.148438 C 27.378906 188.425781 27.230469 188.722656 27.109375 189.03125 C 26.988281 189.339844 26.898438 189.660156 26.84375 189.988281 C 26.84375 189.988281 22.082031 217.496094 40.558594 244.535156 C 59.03125 271.570312 100.292969 297.554688 188.539062 297.554688 C 188.871094 297.554688 189.199219 297.523438 189.527344 297.457031 C 189.851562 297.394531 190.167969 297.296875 190.476562 297.171875 C 190.78125 297.042969 191.074219 296.886719 191.347656 296.703125 C 191.625 296.519531 191.878906 296.308594 192.117188 296.074219 C 192.351562 295.839844 192.558594 295.582031 192.746094 295.308594 C 192.929688 295.03125 193.085938 294.738281 193.210938 294.433594 C 193.339844 294.125 193.433594 293.808594 193.5 293.484375 C 193.566406 293.15625 193.597656 292.828125 193.597656 292.496094 C 193.597656 292.164062 193.566406 291.835938 193.5 291.507812 C 193.433594 291.183594 193.339844 290.867188 193.210938 290.558594 C 193.085938 290.253906 192.929688 289.960938 192.746094 289.683594 C 192.5625 289.410156 192.351562 289.152344 192.117188 288.917969 C 191.882812 288.683594 191.625 288.472656 191.351562 288.289062 C 191.074219 288.105469 190.78125 287.949219 190.476562 287.820312 C 190.167969 287.695312 189.851562 287.597656 189.527344 287.535156 C 189.199219 287.46875 188.871094 287.4375 188.539062 287.4375 C 102.257812 287.4375 65.160156 262.601562 48.910156 238.824219 C 32.664062 215.046875 36.808594 191.734375 36.808594 191.734375 C 36.867188 191.40625 36.890625 191.078125 36.882812 190.746094 C 36.878906 190.414062 36.835938 190.085938 36.765625 189.761719 C 36.691406 189.4375 36.589844 189.121094 36.457031 188.820312 C 36.320312 188.515625 36.160156 188.226562 35.96875 187.953125 C 35.777344 187.683594 35.5625 187.433594 35.320312 187.203125 C 35.082031 186.972656 34.820312 186.769531 34.539062 186.589844 C 34.261719 186.414062 33.964844 186.265625 33.65625 186.144531 C 33.34375 186.023438 33.027344 185.933594 32.699219 185.878906 Z M 32.699219 185.878906 " fill-opacity="1" fill-rule="nonzero"/><path fill="#ef4444" d="M 173.820312 278.507812 L 203.257812 278.507812 C 210.574219 278.507812 216.464844 284.398438 216.464844 291.714844 C 216.464844 299.03125 210.574219 304.921875 203.257812 304.921875 L 173.820312 304.921875 C 166.503906 304.921875 160.613281 299.03125 160.613281 291.714844 C 160.613281 284.398438 166.503906 278.507812 173.820312 278.507812 Z M 173.820312 278.507812 " fill-opacity="1" fill-rule="nonzero"/><path fill="#0c0a09" d="M 174.347656 229.523438 C 173.542969 229.699219 172.917969 230.136719 172.472656 230.832031 C 172.257812 231.164062 172.117188 231.527344 172.046875 231.917969 C 171.980469 232.304688 171.988281 232.695312 172.070312 233.082031 C 172.15625 233.46875 172.3125 233.824219 172.539062 234.148438 C 172.765625 234.472656 173.046875 234.742188 173.378906 234.957031 C 173.378906 234.957031 187.394531 243.675781 203.496094 235.074219 C 203.84375 234.886719 204.144531 234.640625 204.394531 234.332031 C 204.648438 234.027344 204.832031 233.683594 204.945312 233.304688 C 205.058594 232.925781 205.097656 232.539062 205.058594 232.148438 C 205.019531 231.753906 204.910156 231.382812 204.722656 231.03125 C 204.535156 230.683594 204.289062 230.382812 203.984375 230.132812 C 203.675781 229.878906 203.335938 229.695312 202.957031 229.582031 C 202.578125 229.46875 202.191406 229.429688 201.796875 229.46875 C 201.402344 229.507812 201.03125 229.621094 200.679688 229.804688 C 187.257812 236.976562 176.597656 229.921875 176.597656 229.921875 C 175.902344 229.480469 175.152344 229.34375 174.347656 229.523438 Z M 174.347656 229.523438 " fill-opacity="1" fill-rule="nonzero"/><g clip-path="url(#d6fd6b4de1)"><path fill="#fef2f2" d="M 267.710938 212.308594 C 268.460938 212.308594 269.066406 211.699219 269.066406 210.953125 C 269.066406 210.203125 268.460938 209.597656 267.710938 209.597656 L 265.847656 209.597656 C 265.101562 209.597656 264.492188 210.203125 264.492188 210.953125 C 264.492188 211.519531 264.84375 212.019531 265.367188 212.21875 L 265.367188 212.90625 C 265.367188 212.988281 265.414062 213.058594 265.484375 213.089844 C 265.511719 213.105469 265.539062 213.109375 265.566406 213.109375 C 265.617188 213.109375 265.664062 213.089844 265.703125 213.058594 L 266.53125 212.304688 L 267.710938 212.304688 Z M 267.777344 210.703125 C 267.921875 210.703125 268.042969 210.820312 268.042969 210.96875 C 268.042969 211.117188 267.925781 211.234375 267.777344 211.234375 C 267.628906 211.234375 267.511719 211.117188 267.511719 210.96875 C 267.511719 210.820312 267.628906 210.703125 267.777344 210.703125 Z M 265.804688 211.234375 C 265.660156 211.234375 265.539062 211.113281 265.539062 210.964844 C 265.539062 210.820312 265.65625 210.699219 265.804688 210.699219 C 265.953125 210.699219 266.070312 210.820312 266.070312 210.964844 C 266.070312 211.113281 265.953125 211.234375 265.804688 211.234375 Z M 266.792969 210.703125 C 266.9375 210.703125 267.058594 210.820312 267.058594 210.96875 C 267.058594 211.117188 266.941406 211.234375 266.792969 211.234375 C 266.644531 211.234375 266.523438 211.117188 266.523438 210.96875 C 266.523438 210.820312 266.644531 210.703125 266.792969 210.703125 Z M 266.792969 210.703125 " fill-opacity="1" fill-rule="nonzero"/></g><g clip-path="url(#1254866ece)"><path fill="#fef2f2" d="M 269.078125 212.570312 L 267.214844 212.570312 C 266.464844 212.570312 265.859375 213.179688 265.859375 213.925781 C 265.859375 214.675781 266.464844 215.28125 267.214844 215.28125 L 268.394531 215.28125 L 269.222656 216.035156 C 269.261719 216.066406 269.308594 216.085938 269.359375 216.085938 C 269.386719 216.085938 269.414062 216.082031 269.441406 216.070312 C 269.515625 216.035156 269.5625 215.964844 269.5625 215.882812 L 269.5625 215.195312 C 270.082031 214.996094 270.433594 214.496094 270.433594 213.929688 C 270.433594 213.179688 269.824219 212.570312 269.078125 212.570312 Z M 267.148438 214.207031 C 267.003906 214.207031 266.882812 214.089844 266.882812 213.941406 C 266.882812 213.796875 267 213.675781 267.148438 213.675781 C 267.296875 213.675781 267.414062 213.792969 267.414062 213.941406 C 267.414062 214.089844 267.296875 214.207031 267.148438 214.207031 Z M 268.132812 214.207031 C 267.988281 214.207031 267.867188 214.089844 267.867188 213.941406 C 267.867188 213.796875 267.984375 213.675781 268.132812 213.675781 C 268.28125 213.675781 268.398438 213.792969 268.398438 213.941406 C 268.398438 214.089844 268.28125 214.207031 268.132812 214.207031 Z M 269.117188 214.207031 C 268.972656 214.207031 268.851562 214.089844 268.851562 213.941406 C 268.851562 213.796875 268.96875 213.675781 269.117188 213.675781 C 269.265625 213.675781 269.386719 213.792969 269.386719 213.941406 C 269.386719 214.089844 269.265625 214.207031 269.117188 214.207031 Z M 269.117188 214.207031 " fill-opacity="1" fill-rule="nonzero"/></g></svg>