<?xml version="1.0" standalone="no"?>
<!DOCTYPE svg PUBLIC "-//W3C//DTD SVG 20010904//EN"
 "http://www.w3.org/TR/2001/REC-SVG-20010904/DTD/svg10.dtd">
<svg version="1.0" xmlns="http://www.w3.org/2000/svg"
 width="728.000000pt" height="668.000000pt" viewBox="0 0 728.000000 668.000000"
 preserveAspectRatio="xMidYMid meet">

<g transform="translate(0.000000,668.000000) scale(0.100000,-0.100000)"
fill="#000000" stroke="none">
<path d="M3305 6513 c-391 -26 -794 -126 -1164 -289 -260 -114 -522 -274 -756
-460 -141 -113 -416 -388 -527 -527 -441 -555 -682 -1183 -739 -1930 -17 -217
-6 -788 16 -887 60 -268 233 -468 475 -546 46 -15 105 -19 343 -23 l288 -6 39
-102 c185 -490 537 -926 975 -1208 607 -391 1402 -509 2087 -309 519 151 1001
511 1314 981 98 147 202 348 263 509 l49 129 289 5 c279 6 291 7 369 33 192
64 350 220 421 415 55 150 58 185 58 617 0 419 -4 485 -50 751 -93 539 -317
1067 -627 1476 -272 359 -601 657 -973 880 -567 340 -1193 503 -1907 496 -106
-1 -215 -3 -243 -5z m595 -333 c551 -50 1040 -221 1501 -525 612 -404 1067
-1031 1268 -1749 82 -292 111 -521 118 -936 8 -487 -9 -593 -113 -697 -53 -53
-83 -69 -69 -35 37 84 39 114 43 561 4 475 0 524 -49 639 -90 208 -326 361
-561 362 l-56 0 -7 43 c-13 78 -102 332 -157 448 -146 306 -372 579 -631 763
-72 50 -113 89 -161 150 -126 161 -256 269 -436 361 -188 96 -415 161 -668
190 -145 17 -461 19 -602 5 -447 -47 -863 -208 -1211 -467 -122 -90 -318 -278
-409 -393 -215 -270 -371 -591 -459 -945 l-38 -150 -78 -7 c-163 -15 -273 -66
-385 -178 -89 -88 -140 -183 -164 -302 -23 -113 -23 -848 0 -969 8 -46 20 -91
25 -101 17 -31 -9 -20 -58 25 -104 96 -117 174 -110 695 4 330 8 408 26 527
110 708 399 1293 876 1770 514 514 1179 832 1900 909 158 17 508 20 665 6z
m-105 -730 c225 -20 437 -73 607 -152 99 -46 99 -46 67 -140 -63 -187 -207
-379 -384 -511 -262 -195 -587 -267 -990 -221 -221 25 -520 25 -635 0 -267
-58 -476 -172 -665 -361 -107 -107 -159 -173 -242 -311 -29 -48 -53 -81 -53
-73 0 52 85 345 140 485 188 472 528 836 995 1065 365 179 764 254 1160 219z
m1058 -533 c20 -26 80 -78 133 -117 113 -84 235 -199 314 -295 232 -283 390
-691 431 -1106 7 -76 9 -288 6 -620 -5 -549 -9 -595 -73 -821 -195 -697 -787
-1269 -1497 -1448 -301 -76 -675 -81 -997 -14 -356 75 -690 234 -957 458 -403
336 -662 799 -728 1303 -18 139 -21 772 -4 852 14 65 130 300 207 416 181 278
380 451 621 542 138 52 208 64 386 70 125 3 203 0 295 -12 178 -23 445 -31
566 -15 338 42 643 195 881 443 141 147 226 285 296 480 7 19 14 12 120 -116z
m-3691 -2135 l3 -604 -40 7 c-83 13 -120 30 -167 76 -77 77 -78 86 -78 564 0
460 2 479 66 553 43 51 81 72 154 87 l55 12 2 -46 c2 -25 4 -318 5 -649z
m4979 677 c85 -21 168 -114 189 -213 8 -35 11 -180 8 -451 -3 -381 -4 -402
-24 -445 -11 -25 -33 -59 -48 -77 -33 -39 -115 -80 -178 -89 l-48 -6 0 651 0
651 33 -6 c17 -3 48 -10 68 -15z"/>
<path d="M2617 3290 c-73 -19 -149 -85 -190 -166 -40 -79 -38 -223 4 -305 54
-107 141 -162 254 -163 172 -1 297 133 297 319 1 172 -113 305 -273 319 -30 3
-71 1 -92 -4z"/>
<path d="M4433 3282 c-140 -50 -212 -170 -201 -336 8 -121 67 -217 165 -266
107 -54 261 -21 337 73 59 73 70 104 74 208 4 88 2 102 -23 157 -63 141 -217
212 -352 164z"/>
<path d="M4209 2003 c-14 -2 -58 -31 -98 -64 -83 -68 -203 -128 -306 -155 -96
-26 -304 -25 -395 1 -103 28 -218 87 -304 154 -69 54 -84 61 -123 61 -61 0
-97 -22 -122 -73 -45 -94 -13 -159 129 -256 186 -128 398 -191 643 -192 253
-1 460 75 655 239 64 53 82 86 82 148 0 91 -70 151 -161 137z"/>
</g>
</svg>
