<svg id="Layer_1" viewBox="0 0 24 24" xmlns="http://www.w3.org/2000/svg" data-name="Layer 1"><path d="m17.655 13h-11.696c-.553 0-1-.448-1-1s.447-1 1-1h11.696c.553 0 1 .448 1 1s-.447 1-1 1z" opacity=".5"/><path d="m12.606 17.66c-.374 0-.732-.21-.903-.569-.238-.499-.026-1.095.472-1.333 2.842-1.356 4.122-3.02 4.58-3.758-.458-.739-1.738-2.401-4.58-3.757-.498-.238-.71-.834-.472-1.333.236-.499.835-.71 1.333-.472 4.51 2.151 5.731 5.064 5.781 5.188.1.245.097.52-.005.763-.13.309-1.394 3.083-5.776 5.174-.139.066-.285.098-.43.098z"/><path d="m11.925 23c-4.675 0-8.932-1.137-9.11-1.185-.334-.09-.598-.347-.697-.678-.029-.098-.721-2.433-1.038-5.853-.051-.55.354-1.037.903-1.088.577-.051 1.037.354 1.089.903.212 2.29.604 4.073.817 4.921 1.274.297 4.577.98 8.036.98 3.568 0 6.791-.678 8.035-.976.3-1.196.965-4.272.965-8.024 0-3.781-.663-6.837-.963-8.024-1.242-.298-4.46-.976-8.037-.976-3.517 0-6.776.68-8.035.978-.213.85-.607 2.64-.818 4.923-.052.55-.505.957-1.089.903-.55-.051-.954-.538-.903-1.088.317-3.42 1.009-5.755 1.038-5.853.099-.33.36-.585.692-.677.175-.048 4.354-1.187 9.115-1.187 4.848 0 8.948 1.139 9.121 1.188.327.092.585.345.685.67.049.16 1.194 3.967 1.194 9.142 0 5.131-1.145 8.978-1.193 9.139-.099.327-.357.581-.687.674-.173.048-4.283 1.188-9.12 1.188z"/></svg>