<svg id="Layer_1" viewBox="0 0 24 24" xmlns="http://www.w3.org/2000/svg" data-name="Layer 1"><path d="m17.864 4.533c-.108-.274-.333-.487-.612-.581-.056-.019-1.261-.418-3.312-.693-.545-1.519-1.841-2.259-3.94-2.259s-3.396.74-3.94 2.259c-2.051.275-3.256.675-3.312.693-.279.094-.503.307-.612.581-.046.117-1.136 2.939-1.136 8.467s1.09 8.35 1.136 8.467c.104.265.316.472.583.57.106.04 2.627.951 7.2.962 0 0 .614-.013.844-.018-.053-.12-.101-.243-.138-.372-.024-.081-.625-2.147-.625-4.609s.601-4.528.627-4.615c.321-1.105 1.273-1.919 2.423-2.068.431-.055 2.593-.316 4.45-.316.476 0 .971.017 1.452.044-.21-4.238-1.048-6.408-1.089-6.511zm-8.097 7.609c-.787.941-1.685 1.792-2.667 2.528-.178.133-.389.199-.6.199s-.423-.066-.601-.2c-.563-.423-1.102-.886-1.6-1.374-.395-.387-.4-1.02-.014-1.414.388-.396 1.021-.401 1.414-.014.256.25.523.493.8.726.627-.526 1.208-1.107 1.733-1.735.353-.423.982-.48 1.408-.125.424.354.479.985.125 1.409zm0-5c-.787.941-1.685 1.792-2.667 2.528-.178.133-.389.2-.6.2s-.422-.066-.6-.2c-.56-.419-1.098-.882-1.601-1.375-.395-.386-.4-1.02-.014-1.414.386-.395 1.021-.4 1.414-.014.257.251.524.495.8.726.627-.526 1.208-1.107 1.733-1.735.353-.423.982-.48 1.408-.125.424.354.479.985.125 1.409zm4.233 1.858h-2c-.553 0-1-.448-1-1s.447-1 1-1h2c.553 0 1 .448 1 1s-.447 1-1 1zm8.455 4.95c-.101-.348-.4-.603-.762-.65-.093-.012-2.321-.3-4.193-.3s-4.1.288-4.193.3c-.362.047-.661.302-.762.65-.022.076-.545 1.901-.545 4.05s.523 3.974.545 4.05c.101.348.4.603.762.65.093.012 2.321.3 4.193.3s4.1-.288 4.193-.3c.362-.047.661-.302.762-.65.022-.076.545-1.901.545-4.05s-.523-3.974-.545-4.05zm-3.955 4.05h-2c-.553 0-1-.447-1-1s.447-1 1-1h2c.553 0 1 .447 1 1s-.447 1-1 1z"/></svg>