<svg version="1.0" xmlns="http://www.w3.org/2000/svg"
 width="512.000000pt" height="512.000000pt" viewBox="0 0 512.000000 512.000000"
 preserveAspectRatio="xMidYMid meet">

<g transform="translate(0.000000,512.000000) scale(0.100000,-0.100000)"
fill="currentColor" stroke="none">
<path d="M1485 4234 c-22 -3 -87 -13 -145 -24 -415 -78 -704 -291 -806 -595
-20 -60 -28 -107 -32 -191 -11 -246 66 -433 250 -610 174 -167 360 -261 873
-443 143 -51 295 -127 353 -176 117 -100 135 -308 37 -422 -95 -111 -335 -153
-553 -97 -178 46 -288 166 -307 336 -3 29 -8 68 -11 86 l-5 32 -366 0 -366 0
6 -97 c14 -243 137 -482 325 -634 172 -139 374 -227 635 -276 133 -25 503 -25
642 1 261 48 463 149 608 306 148 160 216 390 187 630 -23 187 -92 336 -220
473 -167 178 -366 286 -805 437 -310 105 -474 200 -526 301 -84 166 37 354
259 400 86 18 264 7 334 -20 122 -47 210 -166 224 -300 l7 -61 367 0 368 0 -4
63 c-32 435 -338 754 -822 857 -73 16 -143 22 -282 25 -102 1 -203 1 -225 -1z"/>
<path d="M3945 4188 c-14 -36 -1035 -3292 -1035 -3300 0 -4 112 -8 248 -8
l249 0 518 1648 c285 906 520 1653 523 1660 3 9 -50 12 -247 12 -192 0 -253
-3 -256 -12z"/>
<path d="M4230 1819 c-69 -13 -164 -65 -205 -110 -60 -66 -88 -140 -89 -229
-1 -98 22 -165 81 -230 80 -89 176 -130 309 -130 170 0 312 89 365 229 30 80
24 204 -14 278 -78 152 -258 229 -447 192z"/>
</g>
</svg>
